<svg xmlns="http://www.w3.org/2000/svg" xmlns:xlink="http://www.w3.org/1999/xlink" width="1341" zoomAndPan="magnify" viewBox="0 0 1006.5 821.999993" height="1096" preserveAspectRatio="xMidYMid meet" version="1.0"><defs><g/><clipPath id="bba04cd21a"><path d="M 163 28.292969 L 848 28.292969 L 848 396.542969 L 163 396.542969 Z M 163 28.292969 " clip-rule="nonzero"/></clipPath><clipPath id="319ce65011"><path d="M 177 306.75 L 759 306.75 L 759 513.75 L 177 513.75 Z M 177 306.75 " clip-rule="nonzero"/></clipPath><clipPath id="e7870a4c57"><path d="M 250.097656 308.386719 L 827 308.386719 L 827 513.886719 L 250.097656 513.886719 Z M 250.097656 308.386719 " clip-rule="nonzero"/></clipPath><clipPath id="29272f5b57"><path d="M 148.054688 56.132812 L 858.304688 56.132812 L 858.304688 766.382812 L 148.054688 766.382812 Z M 148.054688 56.132812 " clip-rule="nonzero"/></clipPath><clipPath id="c40d9a14a9"><path d="M 134.136719 27.242188 L 872.136719 27.242188 L 872.136719 765.242188 L 134.136719 765.242188 Z M 134.136719 27.242188 " clip-rule="nonzero"/></clipPath></defs><g clip-path="url(#bba04cd21a)"><path fill="#7d9b76" d="M 489.359375 28.867188 C 467.269531 30.054688 448.53125 32.609375 428.566406 37.183594 C 398.238281 44.09375 367.265625 55.863281 340.503906 70.695312 C 270.175781 109.644531 216.074219 171.09375 186.648438 245.355469 C 174.382812 276.386719 167.042969 308.101562 163.949219 343.484375 C 163.265625 351.226562 162.800781 378.90625 163.375 378.726562 C 163.554688 378.65625 175.75 372.679688 190.425781 365.445312 L 217.152344 352.304688 L 234.242188 331.964844 C 243.628906 320.769531 251.507812 311.410156 251.722656 311.195312 C 251.9375 310.945312 265.714844 304.753906 282.335938 297.410156 L 312.554688 284.089844 L 325.683594 271.023438 C 344.28125 252.519531 363.417969 234.089844 370.46875 227.933594 C 376.117188 223.003906 384.175781 218.644531 393.851562 215.335938 C 408.527344 210.292969 421.191406 204.355469 429.105469 198.8125 C 432.34375 196.542969 436.695312 192.765625 438.816406 190.351562 L 440.867188 187.976562 L 455.039062 187.976562 L 481.589844 165.621094 L 508.171875 143.230469 L 511.445312 146.613281 C 513.207031 148.488281 517.273438 152.664062 520.476562 155.902344 L 526.230469 161.769531 L 529.898438 162.527344 L 533.570312 163.28125 L 544.71875 182.214844 C 550.871094 192.621094 556.519531 202.160156 557.273438 203.417969 L 558.679688 205.722656 L 566.089844 207.917969 L 573.535156 210.113281 L 588.5 230.453125 C 596.738281 241.648438 603.679688 251.117188 603.96875 251.476562 C 604.398438 252.125 604.757812 251.871094 609.363281 247.515625 C 612.0625 244.960938 614.9375 242.296875 615.765625 241.578125 L 617.242188 240.28125 L 629.292969 247.445312 C 635.910156 251.367188 641.628906 254.644531 641.953125 254.789062 C 642.351562 254.894531 645.011719 253.636719 649.148438 251.367188 C 652.78125 249.425781 656.164062 247.589844 656.703125 247.371094 C 657.636719 246.941406 658 247.15625 664.761719 252.089844 L 671.8125 257.273438 L 684.222656 282.289062 C 691.058594 296.042969 696.667969 307.34375 696.703125 307.378906 C 696.742188 307.417969 699.511719 306.984375 702.855469 306.445312 C 706.238281 305.867188 709.117188 305.507812 709.257812 305.6875 C 709.4375 305.832031 717.785156 317.28125 727.820312 331.101562 L 746.058594 356.265625 L 759.1875 358.675781 C 766.382812 360.007812 779.910156 362.492188 789.191406 364.21875 L 806.097656 367.351562 L 811.851562 371.527344 C 815.019531 373.796875 823.976562 380.347656 831.746094 386.035156 C 839.550781 391.757812 846.0625 396.402344 846.242188 396.402344 C 846.421875 396.402344 846.566406 396.113281 846.566406 395.753906 C 846.566406 395.429688 846.820312 392.550781 847.105469 389.382812 C 849.050781 368.613281 847.429688 337.617188 843.113281 312.886719 C 833.6875 258.925781 812.394531 209.359375 780.015625 166.199219 C 769.695312 152.410156 760.375 141.648438 748 129.265625 C 739.082031 120.300781 734.007812 115.621094 726.09375 108.996094 C 669.761719 61.839844 603.464844 34.949219 529.828125 29.40625 C 521.554688 28.757812 497.058594 28.433594 489.359375 28.867188 Z M 489.359375 28.867188 " fill-opacity="1" fill-rule="nonzero"/></g><path fill="#7d9b76" d="M 484.140625 168.753906 C 471.480469 179.371094 460.796875 188.371094 460.402344 188.769531 C 459.464844 189.703125 459.824219 189.523438 465.363281 185.925781 C 467.917969 184.269531 469.863281 183.117188 469.71875 183.367188 C 469.574219 183.621094 468.710938 184.738281 467.8125 185.816406 C 465.976562 187.976562 466.300781 187.796875 470.90625 184.089844 L 473.710938 181.785156 L 470.90625 184.519531 C 469.359375 186.03125 468.171875 187.257812 468.242188 187.257812 C 468.316406 187.257812 470.976562 185.277344 474.179688 182.828125 C 479.179688 179.011719 480.328125 178.292969 482.992188 177.355469 L 486.050781 176.3125 L 491.230469 177.753906 L 496.375 179.191406 L 498.386719 182.863281 C 499.503906 184.878906 500.511719 186.644531 500.617188 186.753906 C 500.726562 186.859375 500.367188 185.457031 499.789062 183.621094 C 499.214844 181.785156 498.785156 180.199219 498.855469 180.128906 C 498.925781 180.09375 500.007812 181.820312 501.230469 184.015625 C 502.453125 186.210938 503.53125 187.941406 503.605469 187.867188 C 503.675781 187.796875 503.351562 186.535156 502.847656 185.097656 C 502.34375 183.65625 501.984375 182.433594 502.058594 182.359375 C 502.09375 182.324219 502.921875 183.800781 503.890625 185.671875 C 504.898438 187.507812 505.761719 188.984375 505.835938 188.875 C 505.941406 188.769531 505.367188 185.457031 504.933594 184.015625 C 504.863281 183.730469 505.691406 185.167969 506.804688 187.257812 C 507.921875 189.34375 508.746094 190.785156 508.675781 190.496094 C 508.605469 190.207031 508.171875 188.839844 507.703125 187.507812 C 507.273438 186.140625 506.984375 184.988281 507.019531 184.917969 C 507.09375 184.878906 508.605469 187.363281 510.402344 190.496094 C 512.164062 193.628906 513.675781 196.183594 513.710938 196.113281 C 513.746094 196.074219 513.066406 194.277344 512.203125 192.152344 C 511.300781 189.992188 510.582031 188.121094 510.582031 187.941406 C 510.582031 187.761719 511.769531 187.617188 513.207031 187.617188 L 515.796875 187.617188 L 525.476562 199.496094 L 535.152344 211.339844 L 540.941406 211.121094 L 546.734375 210.90625 L 553.570312 218.179688 C 557.3125 222.136719 560.441406 225.414062 560.476562 225.414062 C 560.65625 225.414062 560.1875 224.550781 556.160156 217.496094 C 554.21875 214.039062 552.273438 210.617188 551.878906 209.933594 C 551.265625 208.855469 551.449219 208.964844 552.996094 210.65625 L 554.863281 212.632812 L 553.355469 210.113281 C 552.527344 208.710938 551.808594 207.488281 551.699219 207.308594 C 551.628906 207.164062 551.628906 207.054688 551.699219 207.054688 C 551.808594 207.054688 552.8125 208.277344 553.929688 209.753906 C 556.015625 212.453125 556.914062 213.355469 555.691406 211.445312 C 551.808594 205.472656 549.578125 202.375 549.109375 202.230469 C 548.425781 202.015625 535.476562 199.136719 535.222656 199.136719 C 535.117188 199.136719 530.980469 193.015625 526.015625 185.527344 C 521.050781 178.078125 517.128906 172.101562 517.34375 172.316406 C 517.523438 172.496094 519.035156 174.226562 520.65625 176.097656 C 524.035156 179.984375 524.503906 180.488281 524.070312 179.695312 C 523.890625 179.410156 522.238281 176.851562 520.402344 174.007812 C 518.570312 171.203125 517.128906 168.898438 517.238281 168.898438 C 517.308594 168.898438 518.785156 170.660156 520.511719 172.855469 C 522.238281 175.015625 523.710938 176.816406 523.785156 176.816406 C 523.855469 176.816406 522.308594 174.441406 520.367188 171.488281 C 515.796875 164.6875 515.835938 164.757812 518.496094 167.277344 L 520.761719 169.4375 L 518.386719 166.449219 C 517.058594 164.828125 514.898438 162.203125 513.605469 160.617188 C 512.308594 159.035156 511.335938 157.738281 511.480469 157.738281 C 511.589844 157.738281 512.308594 158.171875 513.027344 158.710938 L 514.359375 159.683594 L 512.921875 158.171875 C 511.230469 156.335938 511.519531 156.226562 513.566406 157.847656 C 516.160156 159.933594 516.230469 159.71875 513.820312 157.199219 L 511.480469 154.75 L 514.539062 157.199219 C 517.5625 159.609375 517.5625 159.574219 512.5625 154.535156 C 509.792969 151.761719 507.453125 149.457031 507.34375 149.457031 C 507.238281 149.457031 496.804688 158.132812 484.140625 168.753906 Z M 484.140625 168.753906 " fill-opacity="1" fill-rule="nonzero"/><path fill="#7d9b76" d="M 415.6875 237.042969 L 385.398438 247.914062 L 379.355469 253.925781 L 373.347656 259.933594 L 358.671875 265.480469 L 343.992188 271.023438 L 338.164062 276.53125 C 331.761719 282.613281 310.753906 302.988281 305.898438 307.847656 C 302.515625 311.230469 303.523438 310.296875 313.738281 300.683594 C 319.675781 295.070312 322.15625 293.484375 317.554688 298.199219 C 316.1875 299.640625 319.28125 296.761719 324.425781 291.792969 C 332.769531 283.800781 333.308594 283.332031 329.460938 287.507812 C 326.292969 290.964844 327.734375 289.632812 335.070312 282.433594 C 340.503906 277.070312 345.289062 272.570312 345.648438 272.460938 C 346.042969 272.355469 348.5625 271.742188 351.222656 271.128906 L 356.078125 270.050781 L 359.390625 271.167969 C 361.222656 271.777344 362.734375 272.355469 362.734375 272.460938 C 362.734375 272.605469 361.582031 274.226562 360.179688 276.132812 L 357.625 279.589844 L 359.675781 277.429688 C 361.761719 275.199219 361.621094 275.628906 358.671875 279.769531 L 357.265625 281.75 L 358.742188 280.128906 C 360.683594 277.96875 360.613281 278.582031 358.5625 281.535156 C 355.398438 286.035156 358.023438 282.828125 366.117188 272.246094 C 373.273438 262.921875 374.75 261.195312 378.492188 257.882812 C 380.792969 255.832031 383.273438 253.636719 383.957031 252.988281 C 385.144531 251.945312 385.144531 251.980469 383.777344 253.492188 C 382.988281 254.390625 381.765625 255.761719 381.082031 256.515625 C 380.253906 257.453125 380.972656 256.984375 383.238281 255.113281 C 385.109375 253.5625 386.152344 252.84375 385.578125 253.527344 C 382.734375 256.730469 382.628906 256.910156 384.679688 255.292969 C 387.953125 252.664062 388.132812 252.554688 386.945312 253.886719 C 384.964844 256.011719 385.613281 255.832031 388.203125 253.527344 L 390.6875 251.367188 L 412.378906 243.234375 C 424.320312 238.769531 434.175781 235.132812 434.285156 235.132812 C 434.390625 235.132812 433.421875 235.746094 432.089844 236.5 C 428.925781 238.265625 428.601562 238.660156 431.226562 237.507812 C 432.414062 236.96875 433.421875 236.644531 433.527344 236.753906 C 433.636719 236.824219 433.421875 237.003906 433.097656 237.148438 C 432.773438 237.257812 432.59375 237.507812 432.703125 237.6875 C 432.808594 237.832031 432.414062 238.230469 431.839844 238.554688 C 430.292969 239.34375 429.933594 239.199219 431.441406 238.371094 C 432.953125 237.546875 432.59375 237.402344 431.046875 238.191406 C 430.472656 238.515625 430.074219 238.914062 430.183594 239.09375 C 430.292969 239.273438 429.75 239.742188 428.925781 240.171875 C 428.132812 240.570312 427.484375 240.964844 427.484375 241.074219 C 427.484375 241.289062 428.925781 240.710938 430.722656 239.8125 C 433.601562 238.335938 432.089844 239.453125 428.746094 241.253906 C 426.875 242.261719 425.328125 243.160156 425.328125 243.234375 C 425.328125 243.304688 428.996094 241.578125 433.492188 239.417969 L 441.660156 235.421875 L 447.199219 235.710938 L 452.703125 235.960938 L 456.765625 238.371094 C 458.996094 239.703125 461.011719 240.894531 461.226562 241.035156 C 461.480469 241.179688 461.660156 241.214844 461.660156 241.109375 C 461.660156 241.035156 460.113281 239.847656 458.242188 238.515625 C 456.371094 237.183594 454.824219 236.03125 454.824219 235.960938 C 454.824219 235.816406 460.902344 238.984375 463.027344 240.246094 C 463.636719 240.640625 464.179688 240.855469 464.179688 240.785156 C 464.179688 240.675781 462.164062 239.34375 459.679688 237.796875 C 457.199219 236.285156 455.183594 234.953125 455.183594 234.882812 C 455.183594 234.773438 457.523438 235.960938 460.402344 237.4375 C 463.277344 238.949219 465.617188 240.136719 465.617188 240.027344 C 465.617188 239.957031 463.207031 238.480469 460.222656 236.753906 C 457.269531 235.023438 454.824219 233.550781 454.824219 233.476562 C 454.824219 233.441406 460.039062 235.960938 466.445312 239.09375 L 478.027344 244.78125 L 485.042969 243.738281 C 489.933594 242.980469 492.378906 242.765625 493.136719 242.980469 C 494.144531 243.269531 494 243.304688 491.515625 243.878906 C 489.035156 244.421875 489 244.457031 490.726562 244.3125 C 491.734375 244.242188 492.597656 244.203125 492.597656 244.277344 C 492.597656 244.347656 491.15625 244.78125 489.359375 245.25 C 487.597656 245.679688 486.191406 246.113281 486.265625 246.183594 C 486.371094 246.328125 497.597656 244.382812 499.683594 243.878906 C 500.332031 243.738281 500.617188 244.023438 501.554688 245.859375 L 502.632812 247.984375 L 500.472656 248.992188 C 498.316406 250.035156 497.777344 250.574219 499.609375 249.890625 C 501.335938 249.246094 500.976562 249.785156 498.890625 250.972656 C 497.777344 251.621094 496.949219 252.195312 497.019531 252.269531 C 497.09375 252.339844 497.847656 252.160156 498.710938 251.871094 C 500.976562 251.082031 500.941406 251.1875 498.207031 252.953125 C 495.4375 254.75 495.367188 254.894531 497.8125 253.851562 C 500.148438 252.84375 500.1875 252.953125 498.027344 254.570312 C 495.472656 256.445312 495.292969 256.695312 497.378906 255.507812 C 498.316406 254.96875 499.070312 254.644531 499.070312 254.789062 C 499.070312 254.894531 497.992188 257.054688 496.660156 259.539062 C 495.367188 262.023438 494.429688 263.96875 494.609375 263.859375 C 494.789062 263.75 499.96875 262.5625 506.121094 261.230469 L 517.308594 258.820312 L 530.941406 266.632812 C 546.445312 275.523438 545.402344 274.945312 544.9375 274.480469 C 544.757812 274.261719 539.972656 271.3125 534.324219 267.890625 C 519.613281 258.964844 519.828125 258.855469 535.042969 267.53125 C 543.171875 272.175781 544.398438 272.824219 543.855469 272.28125 C 543.675781 272.101562 538.246094 268.753906 531.804688 264.832031 C 525.367188 260.945312 519.972656 257.558594 519.753906 257.34375 C 519.574219 257.164062 519.972656 257.308594 520.65625 257.703125 C 521.84375 258.421875 540.941406 269.222656 541.699219 269.617188 C 541.949219 269.726562 541.949219 269.691406 541.699219 269.4375 C 541.519531 269.222656 537.453125 266.773438 532.707031 263.929688 C 527.957031 261.085938 523.929688 258.640625 523.710938 258.421875 C 523.207031 257.917969 524.46875 258.605469 530.007812 261.769531 C 535.761719 265.046875 536.484375 265.441406 536.484375 265.226562 C 536.484375 265.15625 532.453125 262.707031 527.488281 259.792969 C 522.5625 256.875 518.496094 254.429688 518.496094 254.355469 C 518.496094 254.246094 518.855469 254.390625 519.324219 254.609375 C 520.113281 255.039062 535.691406 263.535156 536.230469 263.824219 C 536.375 263.894531 536.484375 263.894531 536.484375 263.824219 C 536.484375 263.714844 532.847656 261.589844 528.390625 259.070312 C 523.929688 256.550781 520.296875 254.429688 520.296875 254.355469 C 520.296875 254.140625 521.699219 254.894531 531.085938 259.898438 C 535.332031 262.167969 539.109375 264.148438 539.46875 264.328125 C 539.792969 264.542969 540.078125 264.613281 540.078125 264.507812 C 540.078125 264.433594 534.9375 261.484375 528.675781 257.992188 C 517.382812 251.65625 513.28125 249.171875 519.933594 252.664062 C 521.804688 253.636719 532.382812 259.214844 543.425781 265.011719 L 563.460938 275.558594 L 563.460938 277.214844 C 563.460938 278.113281 563.28125 281.605469 563.101562 284.953125 C 562.886719 288.300781 562.816406 291.109375 562.886719 291.179688 C 562.957031 291.253906 563.28125 289.203125 563.640625 286.609375 C 564 284.019531 564.363281 281.964844 564.433594 282.074219 C 564.503906 282.144531 564.324219 284.59375 564 287.507812 C 563.316406 294.347656 563.355469 294.636719 564.363281 289.128906 C 565.40625 283.40625 565.441406 284.558594 564.542969 292.621094 C 564.144531 296.113281 563.859375 298.992188 563.929688 299.066406 C 564 299.136719 565.117188 293.558594 566.410156 286.683594 C 568.210938 277.179688 568.714844 274.082031 568.390625 273.792969 C 568.140625 273.578125 555.40625 266.449219 540.078125 257.992188 C 524.753906 249.53125 510.976562 241.902344 509.46875 241.074219 L 506.734375 239.5625 L 492.558594 241.144531 L 478.386719 242.765625 L 462.378906 234.449219 C 453.566406 229.878906 446.300781 226.167969 446.191406 226.167969 C 446.082031 226.207031 432.378906 231.101562 415.6875 237.042969 Z M 494.503906 242.585938 C 494.25 242.65625 493.820312 242.65625 493.601562 242.585938 C 493.351562 242.476562 493.53125 242.40625 494.035156 242.40625 C 494.539062 242.40625 494.71875 242.476562 494.503906 242.585938 Z M 519.933594 254.066406 C 519.933594 254.140625 519.46875 253.996094 518.855469 253.671875 C 518.28125 253.347656 517.777344 253.023438 517.777344 252.914062 C 517.777344 252.84375 518.28125 252.988281 518.855469 253.3125 C 519.46875 253.636719 519.933594 253.960938 519.933594 254.066406 Z M 518.136719 254.066406 C 518.136719 254.140625 517.8125 254.066406 517.417969 253.851562 C 517.023438 253.636719 516.699219 253.382812 516.699219 253.277344 C 516.699219 253.203125 517.023438 253.277344 517.417969 253.492188 C 517.8125 253.707031 518.136719 253.960938 518.136719 254.066406 Z M 523.171875 258.027344 C 523.171875 258.101562 522.847656 258.027344 522.453125 257.8125 C 522.058594 257.59375 521.734375 257.34375 521.734375 257.234375 C 521.734375 257.164062 522.058594 257.234375 522.453125 257.453125 C 522.847656 257.667969 523.171875 257.917969 523.171875 258.027344 Z M 523.171875 260.90625 C 523.171875 260.980469 522.847656 260.90625 522.453125 260.691406 C 522.058594 260.476562 521.734375 260.222656 521.734375 260.117188 C 521.734375 260.042969 522.058594 260.117188 522.453125 260.332031 C 522.847656 260.546875 523.171875 260.800781 523.171875 260.90625 Z M 361.082031 277.789062 C 360.757812 278.292969 360.398438 278.617188 360.289062 278.511719 C 360.109375 278.367188 361.222656 276.890625 361.546875 276.890625 C 361.621094 276.890625 361.402344 277.285156 361.082031 277.789062 Z M 565.511719 283.980469 C 565.40625 284.34375 565.332031 284.125 565.332031 283.550781 C 565.332031 282.9375 565.40625 282.6875 565.511719 282.902344 C 565.585938 283.152344 565.585938 283.65625 565.511719 283.980469 Z M 322.804688 292.550781 C 321.332031 294.023438 320.035156 295.25 319.964844 295.25 C 319.855469 295.25 320.96875 294.023438 322.445312 292.550781 C 323.921875 291.074219 325.214844 289.847656 325.289062 289.847656 C 325.394531 289.847656 324.28125 291.074219 322.804688 292.550781 Z M 322.804688 292.550781 " fill-opacity="1" fill-rule="nonzero"/><path fill="#7d9b76" d="M 588.03125 237.546875 C 588.140625 237.726562 589.074219 239.308594 590.152344 241.109375 C 592.457031 244.886719 593.03125 245.933594 592.851562 245.933594 C 592.742188 245.933594 591.84375 244.636719 590.800781 243.050781 C 588.929688 240.207031 587.921875 239.058594 589.289062 241.324219 C 589.867188 242.296875 592.5625 247.011719 593.210938 248.164062 C 593.285156 248.34375 593.285156 248.453125 593.175781 248.453125 C 593.105469 248.453125 592.3125 247.480469 591.484375 246.292969 C 589.867188 243.953125 589.21875 243.414062 590.332031 245.285156 C 590.730469 245.933594 591.484375 247.265625 592.023438 248.273438 L 593.03125 250.070312 L 591.808594 248.667969 C 591.160156 247.875 590.332031 246.90625 589.972656 246.507812 C 589.648438 246.078125 590.191406 247.191406 591.160156 248.957031 L 592.996094 252.195312 L 591.628906 253.492188 C 590.875 254.210938 586.917969 257.917969 582.816406 261.769531 C 578.679688 265.585938 575.332031 268.753906 575.332031 268.828125 C 575.332031 268.933594 576.84375 267.820312 578.714844 266.378906 C 580.585938 264.9375 585.65625 260.980469 590.046875 257.632812 C 594.398438 254.246094 597.925781 251.332031 597.851562 251.117188 C 597.636719 250.574219 588.246094 237.292969 588.066406 237.292969 C 587.960938 237.292969 587.960938 237.402344 588.03125 237.546875 Z M 588.03125 237.546875 " fill-opacity="1" fill-rule="nonzero"/><path fill="#7d9b76" d="M 491.445312 243.304688 C 491.660156 243.375 492.09375 243.375 492.34375 243.304688 C 492.558594 243.195312 492.378906 243.125 491.875 243.125 C 491.375 243.125 491.191406 243.195312 491.445312 243.304688 Z M 491.445312 243.304688 " fill-opacity="1" fill-rule="nonzero"/><path fill="#7d9b76" d="M 596.304688 262.636719 L 574.792969 282.253906 L 572.636719 292.875 L 570.511719 303.527344 L 559.46875 313.609375 C 553.425781 319.152344 548.246094 323.9375 547.957031 324.261719 C 547.671875 324.625 551.878906 321.960938 557.238281 318.359375 C 562.636719 314.761719 567.132812 311.808594 567.238281 311.808594 C 567.347656 311.808594 567.417969 314.4375 567.457031 317.640625 C 567.457031 321.347656 567.597656 323.253906 567.777344 322.789062 C 567.957031 322.390625 568.714844 319.402344 569.503906 316.128906 L 570.910156 310.1875 L 570.765625 318.289062 C 570.691406 322.75 570.585938 327.324219 570.511719 328.476562 C 570.441406 329.625 570.441406 330.527344 570.511719 330.417969 C 570.621094 330.3125 571.59375 325.558594 572.671875 319.871094 C 573.75 314.148438 574.6875 309.289062 574.792969 309.109375 C 574.902344 308.890625 574.902344 310.621094 574.792969 312.886719 C 574.722656 315.15625 574.542969 321.636719 574.433594 327.285156 L 574.253906 337.546875 L 575.871094 327.648438 C 578.75 309.792969 582.238281 288.625 582.417969 287.617188 C 582.5625 286.933594 584.253906 285.207031 588.210938 281.679688 C 594.902344 275.738281 595.945312 275.054688 592.058594 279.085938 C 587.492188 283.839844 587.492188 284.019531 592.058594 280.957031 C 597.636719 277.25 597.851562 277.179688 595.476562 279.300781 C 594.398438 280.273438 593.03125 281.535156 592.421875 282.074219 C 591.84375 282.613281 593.464844 281.640625 596.015625 279.914062 C 600.730469 276.710938 600.980469 276.710938 598.03125 279.949219 L 596.378906 281.714844 L 598.535156 279.769531 C 599.722656 278.691406 605.40625 273.363281 611.125 267.890625 C 616.882812 262.457031 622.566406 257.054688 623.789062 255.867188 L 626.019531 253.78125 L 631.269531 256.515625 C 634.148438 257.992188 636.488281 259.144531 636.488281 259.070312 C 636.488281 258.964844 634.507812 257.59375 632.097656 255.976562 C 626.558594 252.304688 626.234375 251.980469 629.832031 253.78125 C 632.925781 255.328125 635.40625 256.40625 635.40625 256.226562 C 635.40625 256.15625 633.535156 254.933594 631.269531 253.492188 C 629.003906 252.015625 627.207031 250.792969 627.242188 250.71875 C 627.3125 250.648438 629.148438 251.332031 631.304688 252.269531 C 633.464844 253.167969 635.082031 253.742188 634.867188 253.5625 C 634.183594 252.878906 618.535156 243.050781 618.175781 243.050781 C 617.960938 243.050781 608.140625 251.871094 596.304688 262.636719 Z M 596.304688 262.636719 " fill-opacity="1" fill-rule="nonzero"/><path fill="#7d9b76" d="M 650.445312 253.058594 C 646.308594 255.292969 645.121094 256.121094 647.457031 255.113281 C 649.941406 254.066406 650.515625 253.851562 650.515625 254.03125 C 650.515625 254.140625 649.582031 254.679688 648.464844 255.253906 C 646.054688 256.515625 646.089844 256.695312 648.539062 255.652344 C 650.769531 254.679688 651.019531 254.75 649.257812 255.832031 C 647.566406 256.875 647.710938 256.949219 649.796875 256.191406 C 650.660156 255.902344 651.414062 255.722656 651.523438 255.796875 C 651.59375 255.902344 651.019531 257.882812 650.191406 260.1875 C 649.363281 262.492188 648.753906 264.433594 648.824219 264.507812 C 648.898438 264.613281 649.867188 262.492188 653.609375 253.742188 C 654.257812 252.230469 654.6875 250.972656 654.546875 250.972656 C 654.402344 250.972656 652.566406 251.90625 650.445312 253.058594 Z M 650.445312 253.058594 " fill-opacity="1" fill-rule="nonzero"/><path fill="#7d9b76" d="M 654.976562 255.542969 C 654.257812 257.488281 652.746094 261.339844 651.703125 264.109375 L 649.726562 269.152344 L 650.660156 291.289062 C 651.164062 303.457031 651.632812 314.328125 651.667969 315.445312 L 651.773438 317.496094 L 647.457031 321.238281 L 643.140625 324.984375 L 641.992188 348.527344 C 641.378906 361.484375 640.875 372.753906 640.875 373.542969 C 640.875 374.335938 641.667969 369.082031 642.601562 361.878906 C 643.574219 354.679688 644.4375 348.34375 644.542969 347.839844 C 644.617188 347.335938 644.652344 351.371094 644.582031 356.804688 L 644.472656 366.703125 L 645.804688 356.445312 L 647.097656 346.1875 L 647.457031 362.023438 L 648.71875 353.925781 L 649.976562 345.824219 L 650.335938 359.503906 L 652.097656 345.824219 C 653.070312 338.300781 653.933594 332.039062 654.078125 331.929688 C 654.257812 331.714844 655.984375 331.929688 663.140625 333.082031 L 665.515625 333.441406 L 666.917969 337.976562 C 667.675781 340.460938 668.359375 342.335938 668.429688 342.117188 C 668.464844 341.9375 668.035156 339.058594 667.421875 335.746094 C 666.8125 332.433594 666.34375 329.699219 666.414062 329.625 C 666.488281 329.554688 667.171875 331.605469 667.960938 334.125 C 668.753906 336.683594 669.4375 338.734375 669.472656 338.664062 C 669.546875 338.625 669.078125 336.324219 668.503906 333.585938 C 667.242188 327.863281 667.242188 326.460938 668.503906 330.886719 C 668.96875 332.542969 669.402344 333.730469 669.507812 333.480469 C 669.582031 333.261719 669.1875 330.167969 668.683594 326.566406 C 668.179688 322.96875 667.78125 319.945312 667.890625 319.871094 C 668.035156 319.726562 679.292969 324.011719 679.871094 324.441406 C 680.085938 324.625 681.199219 326.855469 682.351562 329.410156 C 683.503906 332.003906 684.511719 334.054688 684.582031 334.019531 C 684.617188 333.945312 684.257812 332.652344 683.789062 331.066406 C 683.285156 329.519531 682.964844 328.1875 683 328.113281 C 683.070312 328.078125 683.648438 329.304688 684.332031 330.886719 C 685.695312 334.234375 686.128906 334.523438 685.050781 331.425781 C 684.652344 330.273438 684.402344 329.265625 684.4375 329.195312 C 684.511719 329.121094 685.265625 330.636719 686.128906 332.507812 C 686.992188 334.378906 687.746094 335.890625 687.785156 335.820312 C 687.855469 335.746094 687.101562 333.480469 686.128906 330.742188 C 685.121094 328.007812 684.332031 325.558594 684.332031 325.308594 C 684.332031 325.054688 685.335938 324.441406 686.523438 323.976562 C 688.972656 323.074219 689.113281 322.859375 689.796875 320.304688 L 690.265625 318.539062 L 694.1875 327.609375 C 696.34375 332.578125 698.179688 336.609375 698.214844 336.539062 C 698.289062 336.464844 697.066406 332.542969 695.480469 327.828125 C 693.898438 323.109375 692.640625 319.1875 692.710938 319.152344 C 692.746094 319.078125 693.898438 321.167969 695.265625 323.722656 C 696.632812 326.277344 697.820312 328.332031 697.855469 328.257812 C 697.929688 328.1875 696.957031 324.984375 695.660156 321.167969 C 694.367188 317.351562 693.394531 314.148438 693.46875 314.074219 C 693.539062 314.003906 694.511719 315.730469 695.660156 317.925781 C 696.777344 320.160156 697.75 321.886719 697.820312 321.816406 C 697.890625 321.742188 697.027344 318.71875 695.878906 315.046875 C 693.972656 309.035156 693.035156 306.875 686.34375 293.089844 C 682.28125 284.664062 678.898438 277.644531 678.828125 277.429688 C 678.753906 277.214844 677.316406 277.359375 675.121094 277.753906 C 673.179688 278.113281 671.164062 278.472656 670.660156 278.546875 C 670.15625 278.652344 671.234375 278.148438 673 277.464844 C 674.796875 276.78125 676.164062 276.207031 676.054688 276.207031 C 675.949219 276.171875 674.617188 276.421875 673.070312 276.710938 C 669.257812 277.429688 668.96875 277.359375 671.738281 276.3125 C 673.035156 275.847656 673.609375 275.523438 673 275.628906 C 672.421875 275.703125 671.199219 275.847656 670.300781 275.953125 L 668.683594 276.171875 L 670.480469 275.449219 L 672.28125 274.730469 L 670.050781 274.910156 L 667.820312 275.125 L 667.097656 272.679688 C 666.703125 271.347656 665.625 267.566406 664.6875 264.292969 C 663.789062 261.015625 662.746094 258.0625 662.421875 257.667969 C 662.097656 257.308594 660.625 255.902344 659.078125 254.535156 L 656.34375 252.015625 Z M 667.316406 327.359375 C 667.207031 327.648438 667.097656 327.539062 667.097656 327.144531 C 667.0625 326.746094 667.171875 326.53125 667.277344 326.675781 C 667.386719 326.78125 667.421875 327.105469 667.316406 327.359375 Z M 667.316406 327.359375 " fill-opacity="1" fill-rule="nonzero"/><path fill="#7d9b76" d="M 537.5625 264.433594 C 537.5625 264.542969 537.886719 264.796875 538.28125 265.011719 C 538.675781 265.226562 539 265.300781 539 265.226562 C 539 265.121094 538.675781 264.867188 538.28125 264.652344 C 537.886719 264.433594 537.5625 264.363281 537.5625 264.433594 Z M 537.5625 264.433594 " fill-opacity="1" fill-rule="nonzero"/><path fill="#7d9b76" d="M 536.84375 265.515625 C 536.84375 265.625 537.167969 265.875 537.5625 266.089844 C 537.957031 266.308594 538.28125 266.378906 538.28125 266.308594 C 538.28125 266.199219 537.957031 265.945312 537.5625 265.730469 C 537.167969 265.515625 536.84375 265.441406 536.84375 265.515625 Z M 536.84375 265.515625 " fill-opacity="1" fill-rule="nonzero"/><path fill="#7d9b76" d="M 541.878906 265.515625 C 541.878906 265.625 542.203125 265.875 542.597656 266.089844 C 542.992188 266.308594 543.316406 266.378906 543.316406 266.308594 C 543.316406 266.199219 542.992188 265.945312 542.597656 265.730469 C 542.203125 265.515625 541.878906 265.441406 541.878906 265.515625 Z M 541.878906 265.515625 " fill-opacity="1" fill-rule="nonzero"/><path fill="#7d9b76" d="M 539.359375 266.953125 C 539.359375 267.0625 539.683594 267.316406 540.078125 267.53125 C 540.476562 267.746094 540.800781 267.820312 540.800781 267.746094 C 540.800781 267.640625 540.476562 267.386719 540.078125 267.171875 C 539.683594 266.953125 539.359375 266.882812 539.359375 266.953125 Z M 539.359375 266.953125 " fill-opacity="1" fill-rule="nonzero"/><path fill="#7d9b76" d="M 542.238281 269.835938 C 542.238281 269.941406 542.5625 270.195312 542.957031 270.410156 C 543.355469 270.625 543.675781 270.699219 543.675781 270.625 C 543.675781 270.519531 543.355469 270.265625 542.957031 270.050781 C 542.5625 269.835938 542.238281 269.761719 542.238281 269.835938 Z M 542.238281 269.835938 " fill-opacity="1" fill-rule="nonzero"/><path fill="#7d9b76" d="M 544.398438 272.714844 C 544.398438 272.824219 544.71875 273.074219 545.117188 273.289062 C 545.511719 273.507812 545.835938 273.578125 545.835938 273.507812 C 545.835938 273.398438 545.511719 273.148438 545.117188 272.929688 C 544.71875 272.714844 544.398438 272.644531 544.398438 272.714844 Z M 544.398438 272.714844 " fill-opacity="1" fill-rule="nonzero"/><path fill="#7d9b76" d="M 545.476562 274.875 C 545.476562 274.984375 545.800781 275.234375 546.195312 275.449219 C 546.589844 275.667969 546.914062 275.738281 546.914062 275.667969 C 546.914062 275.558594 546.589844 275.304688 546.195312 275.089844 C 545.800781 274.875 545.476562 274.800781 545.476562 274.875 Z M 545.476562 274.875 " fill-opacity="1" fill-rule="nonzero"/><g clip-path="url(#319ce65011)"><path fill="#7d9b76" d="M 315.222656 448.027344 L 315.222656 465.191406 L 758.820312 465.191406 L 758.820312 448.027344 Z M 262.207031 476.507812 L 287.984375 412.136719 L 264.363281 389.589844 L 294.425781 410.28125 Z M 199.128906 378.390625 C 199.464844 378.019531 199.808594 377.65625 200.167969 377.308594 C 202.128906 375.375 204.839844 374.394531 207.578125 374.671875 L 244.851562 378.390625 Z M 187.554688 456.398438 C 187.546875 455.519531 187.550781 454.675781 187.566406 453.867188 L 232.40625 456.398438 Z M 187.90625 463.753906 C 187.832031 462.890625 187.773438 462.050781 187.722656 461.234375 L 232.40625 463.753906 Z M 188.746094 471.113281 C 188.625 470.265625 188.511719 469.441406 188.410156 468.632812 L 232.40625 471.113281 Z M 299.074219 404.554688 L 273.035156 385.035156 L 264.363281 378.535156 C 241.84375 410.519531 240.457031 462.925781 240.457031 462.925781 C 236.304688 420.90625 250.074219 389.738281 258.789062 374.71875 C 257.015625 373.851562 255.078125 373.328125 253.085938 373.179688 L 208.5 369.902344 C 201.640625 369.402344 195.257812 373.421875 192.753906 379.824219 C 182.835938 405.136719 162.976562 469.75 197.347656 513.769531 L 197.347656 498.800781 L 203.492188 498.800781 L 206.097656 513.769531 L 212.484375 513.769531 L 212.484375 498.800781 L 218.625 498.800781 L 221.230469 513.769531 L 227.621094 513.769531 L 227.621094 498.800781 L 233.765625 498.800781 L 236.371094 513.769531 L 242.753906 513.769531 L 242.753906 498.800781 L 248.902344 498.800781 L 251.507812 513.769531 L 257.894531 513.769531 L 257.894531 498.800781 L 301.792969 416.820312 C 304.042969 412.621094 302.886719 407.410156 299.074219 404.554688 Z M 326.066406 354.507812 L 324.097656 350.726562 L 375.40625 327.265625 C 374.847656 329.160156 374.472656 331.136719 374.320312 333.171875 L 306.976562 367.65625 L 305.558594 365.140625 Z M 403.132812 325.875 C 407.597656 325.875 411.21875 329.492188 411.21875 333.953125 C 411.21875 338.414062 407.597656 342.03125 403.132812 342.03125 C 398.671875 342.03125 395.050781 338.414062 395.050781 333.953125 C 395.050781 329.492188 398.671875 325.875 403.132812 325.875 Z M 272.003906 379.175781 L 274.640625 377.660156 L 276.082031 380.429688 L 295.722656 370.238281 L 297.113281 372.707031 L 276.019531 383.507812 L 299.6875 401.546875 L 383.910156 362.050781 C 382.816406 360.910156 381.863281 359.753906 381.027344 358.609375 L 381.023438 358.613281 L 310.996094 386.847656 L 379.460938 356.234375 C 374.980469 348.695312 375.40625 342.03125 375.40625 342.03125 C 379.207031 352.855469 385.140625 358.078125 389.292969 360.53125 C 390.8125 361.34375 392.40625 362.035156 394.074219 362.574219 L 416.136719 441.8125 L 444.621094 441.8125 C 453.488281 441.808594 462.730469 441.804688 471.980469 441.796875 L 426.519531 356.5 L 477.027344 441.792969 C 478.941406 441.792969 480.855469 441.789062 482.761719 441.789062 L 446.921875 376.570312 L 448.816406 375.390625 L 460.167969 395.867188 L 463.011719 394.296875 L 489.035156 441.8125 L 495.496094 441.8125 L 467.964844 391.550781 L 472.480469 389.054688 L 445.191406 339.835938 L 432.882812 346.648438 L 443.445312 365.699219 L 441.582031 366.855469 L 429.683594 345.210938 C 430.285156 343.570312 430.742188 341.859375 431.035156 340.09375 L 434.117188 344.953125 L 439.746094 341.394531 L 429.6875 325.53125 C 425.675781 314.597656 415.164062 306.796875 402.828125 306.796875 C 392.988281 306.796875 384.3125 311.757812 379.171875 319.316406 L 321.484375 345.691406 L 319.582031 342.03125 L 269.59375 367.953125 L 270.804688 370.273438 L 267.863281 371.964844 L 272.003906 379.175781 " fill-opacity="1" fill-rule="nonzero"/></g><g clip-path="url(#e7870a4c57)"><path fill="#7d9b76" d="M 690.570312 448.636719 L 690.570312 465.679688 L 250.335938 465.679688 L 250.335938 448.636719 Z M 743.179688 476.910156 L 717.601562 413.003906 L 741.042969 390.625 L 711.207031 411.167969 Z M 805.78125 379.507812 C 805.445312 379.140625 805.105469 378.777344 804.753906 378.433594 C 802.804688 376.511719 800.113281 375.539062 797.394531 375.8125 L 760.40625 379.507812 Z M 817.269531 456.949219 C 817.277344 456.074219 817.273438 455.238281 817.257812 454.433594 L 772.757812 456.949219 Z M 816.917969 464.25 C 816.992188 463.394531 817.050781 462.558594 817.101562 461.746094 L 772.757812 464.25 Z M 816.085938 471.554688 C 816.203125 470.714844 816.316406 469.894531 816.417969 469.09375 L 772.757812 471.554688 Z M 706.59375 405.480469 L 732.433594 386.101562 L 741.042969 379.652344 C 763.390625 411.402344 764.765625 463.429688 764.765625 463.429688 C 768.886719 421.710938 755.222656 390.769531 746.574219 375.859375 C 748.335938 375 750.257812 374.480469 752.234375 374.332031 L 796.484375 371.082031 C 803.289062 370.582031 809.625 374.574219 812.109375 380.925781 C 821.949219 406.058594 841.660156 470.203125 807.550781 513.90625 L 807.550781 499.042969 L 801.453125 499.042969 L 798.867188 513.90625 L 792.527344 513.90625 L 792.527344 499.042969 L 786.433594 499.042969 L 783.847656 513.90625 L 777.507812 513.90625 L 777.507812 499.042969 L 771.40625 499.042969 L 768.820312 513.90625 L 762.488281 513.90625 L 762.488281 499.042969 L 756.386719 499.042969 L 753.800781 513.90625 L 747.460938 513.90625 L 747.460938 499.042969 L 703.894531 417.65625 C 701.664062 413.488281 702.808594 408.316406 706.59375 405.480469 Z M 679.808594 355.792969 L 681.757812 352.042969 L 630.839844 328.75 C 631.394531 330.632812 631.769531 332.59375 631.917969 334.613281 L 698.753906 368.847656 L 700.15625 366.351562 Z M 603.324219 327.371094 C 598.894531 327.371094 595.300781 330.964844 595.300781 335.390625 C 595.300781 339.816406 598.894531 343.410156 603.324219 343.410156 C 607.753906 343.410156 611.34375 339.816406 611.34375 335.390625 C 611.34375 330.964844 607.753906 327.371094 603.324219 327.371094 Z M 733.460938 380.285156 L 730.84375 378.78125 L 729.414062 381.527344 L 709.921875 371.414062 L 708.539062 373.863281 L 729.476562 384.585938 L 705.984375 402.496094 L 622.402344 363.285156 C 623.488281 362.152344 624.433594 361.003906 625.261719 359.867188 L 625.265625 359.871094 L 694.761719 387.898438 L 626.820312 357.507812 C 631.265625 350.023438 630.839844 343.410156 630.839844 343.410156 C 627.070312 354.15625 621.179688 359.339844 617.058594 361.777344 C 615.550781 362.582031 613.96875 363.269531 612.316406 363.800781 L 590.417969 442.46875 L 562.152344 442.46875 C 553.351562 442.464844 544.179688 442.460938 535 442.453125 L 580.117188 357.773438 L 529.992188 442.449219 C 528.089844 442.449219 526.191406 442.445312 524.300781 442.445312 L 559.871094 377.699219 L 557.988281 376.527344 L 546.722656 396.855469 L 543.902344 395.296875 L 518.074219 442.46875 L 511.660156 442.46875 L 538.984375 392.570312 L 534.503906 390.089844 L 561.585938 341.230469 L 573.800781 347.992188 L 563.316406 366.90625 L 565.167969 368.054688 L 576.976562 346.566406 C 576.378906 344.9375 575.925781 343.238281 575.636719 341.484375 L 572.578125 346.3125 L 566.988281 342.777344 L 576.972656 327.027344 C 580.953125 316.171875 591.386719 308.429688 603.625 308.429688 C 613.394531 308.429688 622 313.355469 627.105469 320.859375 L 684.351562 347.046875 L 686.242188 343.410156 L 735.851562 369.144531 L 734.652344 371.449219 L 737.570312 373.125 L 733.460938 380.285156 " fill-opacity="1" fill-rule="nonzero"/></g><g clip-path="url(#29272f5b57)"><path fill="#7d9b76" d="M 503.179688 766.382812 C 306.984375 766.382812 148.054688 606.359375 148.054688 411.257812 C 148.054688 216.160156 306.984375 56.132812 503.179688 56.132812 C 699.375 56.132812 858.304688 215.0625 858.304688 411.257812 C 858.304688 607.453125 698.28125 766.382812 503.179688 766.382812 Z M 503.179688 78.054688 C 319.039062 78.054688 169.976562 227.117188 169.976562 411.257812 C 169.976562 595.398438 319.039062 744.460938 503.179688 744.460938 C 687.320312 744.460938 836.382812 595.398438 836.382812 411.257812 C 836.382812 227.117188 686.222656 78.054688 503.179688 78.054688 Z M 503.179688 78.054688 " fill-opacity="1" fill-rule="nonzero"/></g><g clip-path="url(#c40d9a14a9)"><path fill="#3a6b36" d="M 503.136719 765.242188 C 299.273438 765.242188 134.136719 598.964844 134.136719 396.242188 C 134.136719 193.523438 299.273438 27.242188 503.136719 27.242188 C 706.996094 27.242188 872.136719 192.382812 872.136719 396.242188 C 872.136719 600.105469 705.855469 765.242188 503.136719 765.242188 Z M 503.136719 50.023438 C 311.800781 50.023438 156.914062 204.910156 156.914062 396.242188 C 156.914062 587.578125 311.800781 742.464844 503.136719 742.464844 C 694.46875 742.464844 849.359375 587.578125 849.359375 396.242188 C 849.355469 204.910156 693.328125 50.023438 503.136719 50.023438 Z M 503.136719 50.023438 " fill-opacity="1" fill-rule="nonzero"/></g><g fill="#3a6b36" fill-opacity="1"><g transform="translate(276.996889, 555.427322)"><g><path d="M 2.09375 -17.203125 L 7.34375 -17.203125 L 7.34375 -64.4375 L 2.09375 -64.4375 L 2.09375 -81.640625 L 50.265625 -81.640625 C 59.003906 -81.640625 65.820312 -79.851562 70.71875 -76.28125 C 75.625 -72.71875 78.078125 -67.613281 78.078125 -60.96875 C 78.078125 -56.84375 77.097656 -53.363281 75.140625 -50.53125 C 73.179688 -47.695312 70.890625 -45.5625 68.265625 -44.125 C 65.640625 -42.6875 63.101562 -41.722656 60.65625 -41.234375 L 60.65625 -40.1875 C 65.625 -39.695312 70.097656 -38.125 74.078125 -35.46875 C 78.066406 -32.8125 80.0625 -28.054688 80.0625 -21.203125 C 80.0625 -13.847656 77.296875 -8.472656 71.765625 -5.078125 C 66.242188 -1.691406 59.078125 0 50.265625 0 L 2.09375 0 Z M 42.390625 -47.21875 C 44.421875 -47.21875 45.941406 -47.757812 46.953125 -48.84375 C 47.972656 -49.925781 48.484375 -51.625 48.484375 -53.9375 L 48.484375 -57.71875 C 48.484375 -60.019531 47.972656 -61.710938 46.953125 -62.796875 C 45.941406 -63.890625 44.421875 -64.4375 42.390625 -64.4375 L 36.734375 -64.4375 L 36.734375 -47.21875 Z M 43.125 -17.203125 C 45.15625 -17.203125 46.675781 -17.742188 47.6875 -18.828125 C 48.707031 -19.921875 49.21875 -21.617188 49.21875 -23.921875 L 49.21875 -28.546875 C 49.21875 -30.847656 48.707031 -32.539062 47.6875 -33.625 C 46.675781 -34.71875 45.15625 -35.265625 43.125 -35.265625 L 36.734375 -35.265625 L 36.734375 -17.203125 Z M 43.125 -17.203125 "/></g></g></g><g fill="#3a6b36" fill-opacity="1"><g transform="translate(353.058849, 555.427322)"><g><path d="M 79.125 -17.203125 L 83.328125 -17.203125 L 83.328125 0 L 42.1875 0 L 42.1875 -17.203125 L 48.484375 -17.203125 L 46.796875 -25.609375 L 32.53125 -25.609375 L 30.859375 -17.203125 L 37.140625 -17.203125 L 37.140625 0 L 1.265625 0 L 1.265625 -17.203125 L 5.453125 -17.203125 L 23.1875 -81.640625 L 61.390625 -81.640625 Z M 34.84375 -36.734375 L 44.5 -36.734375 L 40.1875 -57.609375 L 39.140625 -57.609375 Z M 34.84375 -36.734375 "/></g></g></g><g fill="#3a6b36" fill-opacity="1"><g transform="translate(432.373188, 555.427322)"><g><path d="M 81.21875 -26.234375 L 75.96875 -26.234375 L 75.96875 -5.25 C 72.894531 -3.5 68.398438 -1.941406 62.484375 -0.578125 C 56.578125 0.785156 50.195312 1.46875 43.34375 1.46875 C 30.257812 1.46875 20.007812 -1.972656 12.59375 -8.859375 C 5.175781 -15.753906 1.46875 -26.410156 1.46875 -40.828125 C 1.46875 -55.585938 5.15625 -66.320312 12.53125 -73.03125 C 19.914062 -79.75 30.460938 -83.109375 44.171875 -83.109375 C 50.816406 -83.109375 57.039062 -82.40625 62.84375 -81 C 68.65625 -79.601562 73.03125 -78.035156 75.96875 -76.296875 L 75.96875 -51.203125 L 49.734375 -51.203125 L 49.734375 -56.140625 C 49.734375 -59.078125 49.117188 -61.191406 47.890625 -62.484375 C 46.671875 -63.785156 44.734375 -64.4375 42.078125 -64.4375 C 39.421875 -64.4375 37.476562 -63.785156 36.25 -62.484375 C 35.03125 -61.191406 34.421875 -59.078125 34.421875 -56.140625 L 34.421875 -25.5 C 34.421875 -22.5625 35.03125 -20.441406 36.25 -19.140625 C 37.476562 -17.847656 39.421875 -17.203125 42.078125 -17.203125 C 44.734375 -17.203125 46.671875 -17.847656 47.890625 -19.140625 C 49.117188 -20.441406 49.734375 -22.5625 49.734375 -25.5 L 49.734375 -26.234375 L 44.078125 -26.234375 L 44.078125 -41.875 L 81.21875 -41.875 Z M 81.21875 -26.234375 "/></g></g></g><g fill="#3a6b36" fill-opacity="1"><g transform="translate(509.169578, 555.427322)"><g><path d="M 81.21875 -26.234375 L 75.96875 -26.234375 L 75.96875 -5.25 C 72.894531 -3.5 68.398438 -1.941406 62.484375 -0.578125 C 56.578125 0.785156 50.195312 1.46875 43.34375 1.46875 C 30.257812 1.46875 20.007812 -1.972656 12.59375 -8.859375 C 5.175781 -15.753906 1.46875 -26.410156 1.46875 -40.828125 C 1.46875 -55.585938 5.15625 -66.320312 12.53125 -73.03125 C 19.914062 -79.75 30.460938 -83.109375 44.171875 -83.109375 C 50.816406 -83.109375 57.039062 -82.40625 62.84375 -81 C 68.65625 -79.601562 73.03125 -78.035156 75.96875 -76.296875 L 75.96875 -51.203125 L 49.734375 -51.203125 L 49.734375 -56.140625 C 49.734375 -59.078125 49.117188 -61.191406 47.890625 -62.484375 C 46.671875 -63.785156 44.734375 -64.4375 42.078125 -64.4375 C 39.421875 -64.4375 37.476562 -63.785156 36.25 -62.484375 C 35.03125 -61.191406 34.421875 -59.078125 34.421875 -56.140625 L 34.421875 -25.5 C 34.421875 -22.5625 35.03125 -20.441406 36.25 -19.140625 C 37.476562 -17.847656 39.421875 -17.203125 42.078125 -17.203125 C 44.734375 -17.203125 46.671875 -17.847656 47.890625 -19.140625 C 49.117188 -20.441406 49.734375 -22.5625 49.734375 -25.5 L 49.734375 -26.234375 L 44.078125 -26.234375 L 44.078125 -41.875 L 81.21875 -41.875 Z M 81.21875 -26.234375 "/></g></g></g><g fill="#3a6b36" fill-opacity="1"><g transform="translate(585.965967, 555.427322)"><g><path d="M 2.09375 0 L 2.09375 -17.203125 L 7.34375 -17.203125 L 7.34375 -64.4375 L 2.09375 -64.4375 L 2.09375 -81.640625 L 72.9375 -81.640625 L 72.9375 -49.953125 L 49.421875 -49.953125 L 49.421875 -64.4375 L 36.734375 -64.4375 L 36.734375 -47.84375 L 45.96875 -47.84375 L 45.96875 -35.890625 L 36.734375 -35.890625 L 36.734375 -17.203125 L 49.421875 -17.203125 L 49.421875 -33.796875 L 72.9375 -33.796875 L 72.9375 0 Z M 2.09375 0 "/></g></g></g><g fill="#3a6b36" fill-opacity="1"><g transform="translate(655.523222, 555.427322)"><g><path d="M 2.09375 -17.203125 L 7.34375 -17.203125 L 7.34375 -64.4375 L 2.09375 -64.4375 L 2.09375 -81.640625 L 50.265625 -81.640625 C 59.285156 -81.640625 66.175781 -79.785156 70.9375 -76.078125 C 75.695312 -72.367188 78.078125 -66.351562 78.078125 -58.03125 C 78.078125 -53.34375 77.128906 -49.285156 75.234375 -45.859375 C 73.347656 -42.429688 70.65625 -40.050781 67.15625 -38.71875 L 67.265625 -37.671875 C 73.984375 -36.617188 77.34375 -32.492188 77.34375 -25.296875 L 77.34375 -17.203125 L 82.265625 -17.203125 L 82.265625 0 L 49 0 L 49 -24.65625 C 49 -27.382812 48.597656 -29.445312 47.796875 -30.84375 C 46.992188 -32.25 45.734375 -33.195312 44.015625 -33.6875 C 42.304688 -34.175781 39.878906 -34.421875 36.734375 -34.421875 L 36.734375 -17.203125 L 43.65625 -17.203125 L 43.65625 0 L 2.09375 0 Z M 42.390625 -47.21875 C 44.421875 -47.21875 45.941406 -47.757812 46.953125 -48.84375 C 47.972656 -49.925781 48.484375 -51.625 48.484375 -53.9375 L 48.484375 -57.71875 C 48.484375 -60.019531 47.972656 -61.710938 46.953125 -62.796875 C 45.941406 -63.890625 44.421875 -64.4375 42.390625 -64.4375 L 36.734375 -64.4375 L 36.734375 -47.21875 Z M 42.390625 -47.21875 "/></g></g></g><g fill="#3a6b36" fill-opacity="1"><g transform="translate(331.818446, 654.748537)"><g><path d="M 2.09375 -17.203125 L 7.34375 -17.203125 L 7.34375 -64.4375 L 2.09375 -64.4375 L 2.09375 -81.640625 L 50.265625 -81.640625 C 59.003906 -81.640625 65.820312 -79.851562 70.71875 -76.28125 C 75.625 -72.71875 78.078125 -67.613281 78.078125 -60.96875 C 78.078125 -56.84375 77.097656 -53.363281 75.140625 -50.53125 C 73.179688 -47.695312 70.890625 -45.5625 68.265625 -44.125 C 65.640625 -42.6875 63.101562 -41.722656 60.65625 -41.234375 L 60.65625 -40.1875 C 65.625 -39.695312 70.097656 -38.125 74.078125 -35.46875 C 78.066406 -32.8125 80.0625 -28.054688 80.0625 -21.203125 C 80.0625 -13.847656 77.296875 -8.472656 71.765625 -5.078125 C 66.242188 -1.691406 59.078125 0 50.265625 0 L 2.09375 0 Z M 42.390625 -47.21875 C 44.421875 -47.21875 45.941406 -47.757812 46.953125 -48.84375 C 47.972656 -49.925781 48.484375 -51.625 48.484375 -53.9375 L 48.484375 -57.71875 C 48.484375 -60.019531 47.972656 -61.710938 46.953125 -62.796875 C 45.941406 -63.890625 44.421875 -64.4375 42.390625 -64.4375 L 36.734375 -64.4375 L 36.734375 -47.21875 Z M 43.125 -17.203125 C 45.15625 -17.203125 46.675781 -17.742188 47.6875 -18.828125 C 48.707031 -19.921875 49.21875 -21.617188 49.21875 -23.921875 L 49.21875 -28.546875 C 49.21875 -30.847656 48.707031 -32.539062 47.6875 -33.625 C 46.675781 -34.71875 45.15625 -35.265625 43.125 -35.265625 L 36.734375 -35.265625 L 36.734375 -17.203125 Z M 43.125 -17.203125 "/></g></g></g><g fill="#3a6b36" fill-opacity="1"><g transform="translate(407.880406, 654.748537)"><g><path d="M 79.125 -17.203125 L 83.328125 -17.203125 L 83.328125 0 L 42.1875 0 L 42.1875 -17.203125 L 48.484375 -17.203125 L 46.796875 -25.609375 L 32.53125 -25.609375 L 30.859375 -17.203125 L 37.140625 -17.203125 L 37.140625 0 L 1.265625 0 L 1.265625 -17.203125 L 5.453125 -17.203125 L 23.1875 -81.640625 L 61.390625 -81.640625 Z M 34.84375 -36.734375 L 44.5 -36.734375 L 40.1875 -57.609375 L 39.140625 -57.609375 Z M 34.84375 -36.734375 "/></g></g></g><g fill="#3a6b36" fill-opacity="1"><g transform="translate(487.194745, 654.748537)"><g><path d="M 42.8125 1.46875 C 29.59375 1.46875 19.394531 -1.882812 12.21875 -8.59375 C 5.050781 -15.3125 1.46875 -26.054688 1.46875 -40.828125 C 1.46875 -69.015625 15.179688 -83.109375 42.609375 -83.109375 C 49.253906 -83.109375 55.425781 -82.300781 61.125 -80.6875 C 66.820312 -79.082031 71.070312 -77.300781 73.875 -75.34375 L 73.875 -49.109375 L 48.6875 -49.109375 L 48.6875 -56.671875 C 48.6875 -59.328125 48.09375 -61.285156 46.90625 -62.546875 C 45.71875 -63.804688 43.9375 -64.4375 41.5625 -64.4375 C 39.175781 -64.4375 37.390625 -63.804688 36.203125 -62.546875 C 35.015625 -61.285156 34.421875 -59.328125 34.421875 -56.671875 L 34.421875 -24.96875 C 34.421875 -22.3125 35.015625 -20.351562 36.203125 -19.09375 C 37.390625 -17.832031 39.175781 -17.203125 41.5625 -17.203125 C 43.9375 -17.203125 45.71875 -17.832031 46.90625 -19.09375 C 48.09375 -20.351562 48.6875 -22.3125 48.6875 -24.96875 L 48.6875 -33.46875 L 73.875 -33.46875 L 73.875 -6.296875 C 71.007812 -4.335938 66.757812 -2.550781 61.125 -0.9375 C 55.488281 0.664062 49.382812 1.46875 42.8125 1.46875 Z M 42.8125 1.46875 "/></g></g></g><g fill="#3a6b36" fill-opacity="1"><g transform="translate(557.696223, 654.748537)"><g><path d="M 86.046875 -64.4375 L 80.796875 -64.4375 L 80.796875 -17.203125 L 86.046875 -17.203125 L 86.046875 0 L 46.375 0 L 46.375 -17.203125 L 51.421875 -17.203125 L 51.421875 -34.53125 L 36.734375 -34.53125 L 36.734375 -17.203125 L 41.765625 -17.203125 L 41.765625 0 L 2.09375 0 L 2.09375 -17.203125 L 7.34375 -17.203125 L 7.34375 -64.4375 L 2.09375 -64.4375 L 2.09375 -81.640625 L 41.765625 -81.640625 L 41.765625 -64.4375 L 36.734375 -64.4375 L 36.734375 -48.484375 L 51.421875 -48.484375 L 51.421875 -64.4375 L 46.375 -64.4375 L 46.375 -81.640625 L 86.046875 -81.640625 Z M 86.046875 -64.4375 "/></g></g></g><g fill="#3a6b36" fill-opacity="1"><g transform="translate(640.577677, 654.748537)"><g><path d="M 2.09375 0 L 2.09375 -17.203125 L 7.34375 -17.203125 L 7.34375 -64.4375 L 2.09375 -64.4375 L 2.09375 -81.640625 L 41.96875 -81.640625 L 41.96875 -64.4375 L 36.734375 -64.4375 L 36.734375 -17.203125 L 41.96875 -17.203125 L 41.96875 0 Z M 2.09375 0 "/></g></g></g></svg>